<?xml version="1.0" encoding="UTF-8"?>
<!DOCTYPE svg PUBLIC "-//W3C//DTD SVG 1.1//EN" "http://www.w3.org/Graphics/SVG/1.1/DTD/svg11.dtd">
<!-- Creator: CorelDRAW 2019 (64-Bit) -->
<svg xmlns="http://www.w3.org/2000/svg" xml:space="preserve" width="2.07461in" height="0.728236in" version="1.1" style="shape-rendering:geometricPrecision; text-rendering:geometricPrecision; image-rendering:optimizeQuality; fill-rule:evenodd; clip-rule:evenodd"
viewBox="0 0 2069.02 726.27"
 xmlns:xlink="http://www.w3.org/1999/xlink"
 xmlns:xodm="http://www.corel.com/coreldraw/odm/2003">
 <defs>
  <style type="text/css">
   <![CDATA[
    .fil2 {fill:black;fill-rule:nonzero}
    .fil6 {fill:url(#id0)}
    .fil4 {fill:url(#id1)}
    .fil3 {fill:url(#id2)}
    .fil5 {fill:url(#id3)}
    .fil0 {fill:url(#id4)}
    .fil7 {fill:url(#id5)}
    .fil1 {fill:url(#id6)}
   ]]>
  </style>
  <linearGradient id="id0" gradientUnits="userSpaceOnUse" x1="510.82" y1="259.44" x2="727.52" y2="486.51">
   <stop offset="0" style="stop-opacity:1; stop-color:#053565"/>
   <stop offset="0.490196" style="stop-opacity:1; stop-color:#5B87C6"/>
   <stop offset="1" style="stop-opacity:1; stop-color:#4AC8DD"/>
  </linearGradient>
  <linearGradient id="id1" gradientUnits="userSpaceOnUse" x1="13.36" y1="467.35" x2="13.36" y2="74.66">
   <stop offset="0" style="stop-opacity:1; stop-color:#AC1C69"/>
   <stop offset="0.431373" style="stop-opacity:1; stop-color:#E73566"/>
   <stop offset="1" style="stop-opacity:1; stop-color:#E94772"/>
  </linearGradient>
  <linearGradient id="id2" gradientUnits="userSpaceOnUse" xlink:href="#id1" x1="246.57" y1="347.81" x2="361.71" y2="494.12">
  </linearGradient>
  <linearGradient id="id3" gradientUnits="userSpaceOnUse" x1="76.89" y1="481.99" x2="366.04" y2="187.66">
   <stop offset="0" style="stop-opacity:1; stop-color:#E73469"/>
   <stop offset="0.529412" style="stop-opacity:1; stop-color:#EA587F"/>
   <stop offset="1" style="stop-opacity:1; stop-color:#E73469"/>
  </linearGradient>
  <linearGradient id="id4" gradientUnits="userSpaceOnUse" x1="869.55" y1="-101.49" x2="869.55" y2="649.57">
   <stop offset="0" style="stop-opacity:1; stop-color:#79C190"/>
   <stop offset="1" style="stop-opacity:1; stop-color:#029987"/>
  </linearGradient>
  <linearGradient id="id5" gradientUnits="userSpaceOnUse" x1="486.52" y1="234.8" x2="486.54" y2="696.7">
   <stop offset="0" style="stop-opacity:1; stop-color:#5A87C5"/>
   <stop offset="0.458824" style="stop-opacity:1; stop-color:#59B6C8"/>
   <stop offset="1" style="stop-opacity:1; stop-color:#5A87C5"/>
  </linearGradient>
  <linearGradient id="id6" gradientUnits="userSpaceOnUse" xlink:href="#id4" x1="871.15" y1="-37.18" x2="871.15" y2="148.01">
  </linearGradient>
 </defs>
 <g id="Layer_x0020_1">
  <metadata id="CorelCorpID_0Corel-Layer"/>
  <g id="_2428755382240">
   <path class="fil0" d="M832.25 195.73l0 299.21c0,27.93 22.85,50.78 50.78,50.78l0 0c27.93,0 50.78,-22.86 50.78,-50.78l0 -299.21c0,-27.93 -22.85,-50.78 -50.78,-50.78l0 0 0 0c-27.93,0 -50.78,22.85 -50.78,50.78z"/>
   <path class="fil1" d="M884.27 23.59c27.29,0 49.41,22.12 49.41,49.41 0,27.29 -22.12,49.41 -49.41,49.41 -27.29,0 -49.41,-22.13 -49.41,-49.41 0,-27.28 22.12,-49.41 49.41,-49.41l0 0z"/>
   <path class="fil2" d="M1118.41 495.13c-18.2,0 -33.67,-6.36 -46.49,-19.19 -12.82,-12.82 -19.18,-28.28 -19.18,-46.49l0 -115.79 43.26 0c7.54,0 13.8,-2.74 18.99,-8.03 5.28,-5.19 8.03,-11.55 8.03,-18.99 0,-7.44 -2.74,-13.7 -8.03,-18.89 -5.19,-5.18 -11.45,-7.73 -18.99,-7.73l-43.26 0 0 -88.87c0,-7.34 -2.55,-13.61 -7.73,-18.99 -5.38,-5.19 -11.65,-7.73 -18.98,-7.73 -7.44,0 -13.81,2.54 -19.19,7.73 -5.19,5.38 -7.73,11.65 -7.73,18.99l0 258.3c0,32.88 11.65,60.98 35.04,84.37 23.3,23.29 51.38,34.94 84.27,34.94l0.29 0c7.44,0 13.7,-2.54 18.89,-7.73 5.38,-5.39 8.03,-11.74 8.03,-19.18 0,-7.34 -2.64,-13.6 -8.03,-18.99 -5.19,-5.19 -11.45,-7.73 -18.89,-7.73l-0.29 0z"/>
   <path class="fil2" d="M1367.03 429.46c0,18.21 -6.46,33.67 -19.48,46.49 -12.82,12.82 -28.19,19.19 -46.19,19.19l-1.96 0c-18.21,0 -33.67,-6.36 -46.5,-19.19 -12.82,-12.82 -19.18,-28.28 -19.18,-46.49l0 -54.71c0,-18.21 6.36,-33.67 19.18,-46.49 12.82,-12.82 28.29,-19.18 46.5,-19.18l1.96 0c18.01,0 33.37,6.36 46.19,19.18 13.02,12.82 19.48,28.29 19.48,46.49l0 54.71zm-67.63 -174.03c-32.89,0 -60.98,11.65 -84.28,34.94 -23.39,23.39 -35.04,51.49 -35.04,84.37l0 54.71c0,32.89 11.65,60.98 35.04,84.37 23.3,23.29 51.39,34.94 84.28,34.94l1.96 0c32.88,0 60.98,-11.65 84.37,-34.94 23.29,-23.39 34.94,-51.48 34.94,-84.37l0 -54.71c0,-32.88 -11.65,-60.98 -34.94,-84.37 -23.39,-23.29 -51.49,-34.94 -84.37,-34.94l-1.96 0z"/>
   <path class="fil2" d="M1580.11 495.13c-18.21,0 -33.67,-6.36 -46.49,-19.19 -12.82,-12.82 -19.18,-28.28 -19.18,-46.49l0 -115.79 43.26 0c7.53,0 13.8,-2.74 18.98,-8.03 5.28,-5.19 8.03,-11.55 8.03,-18.99 0,-7.44 -2.74,-13.7 -8.03,-18.89 -5.19,-5.18 -11.45,-7.73 -18.98,-7.73l-43.26 0 0 -88.87c0,-7.34 -2.54,-13.61 -7.73,-18.99 -5.39,-5.19 -11.65,-7.73 -18.99,-7.73 -7.44,0 -13.81,2.54 -19.18,7.73 -5.19,5.38 -7.73,11.65 -7.73,18.99l0 258.3c0,32.88 11.65,60.98 35.04,84.37 23.29,23.29 51.38,34.94 84.27,34.94l0.29 0c7.44,0 13.7,-2.54 18.89,-7.73 5.39,-5.39 8.03,-11.74 8.03,-19.18 0,-7.34 -2.64,-13.6 -8.03,-18.99 -5.18,-5.19 -11.45,-7.73 -18.89,-7.73l-0.29 0z"/>
   <path class="fil2" d="M1823.04 429.46c0,18.21 -6.56,33.67 -19.58,46.49 -12.72,12.82 -28.18,19.19 -46.1,19.19l-2.06 0c-18.1,0 -33.57,-6.36 -46.39,-19.19 -12.82,-12.82 -19.28,-28.28 -19.28,-46.49l0 -54.71c0,-18.21 6.46,-33.67 19.28,-46.49 12.82,-12.82 28.29,-19.18 46.39,-19.18l2.06 0c17.91,0 33.37,6.36 46.1,19.18 13.02,12.82 19.58,28.29 19.58,46.49l0 54.71zm26.62 -174.03c-13.9,0 -22.51,6.75 -25.84,20.35 -20.26,-13.6 -42.38,-20.35 -66.46,-20.35l-2.06 0c-32.88,0 -60.98,11.65 -84.27,34.94 -23.3,23.39 -34.94,51.48 -34.94,84.37l0 54.71c0,32.88 11.65,60.98 34.94,84.37 23.29,23.29 51.38,34.94 84.27,34.94l2.06 0c24.28,0 46.39,-6.75 66.46,-20.36 3.33,13.6 11.94,20.36 25.84,20.36 7.44,0 13.8,-2.54 18.89,-7.73 5.38,-5.39 8.02,-11.74 8.02,-19.18l0 -239.8c0,-7.24 -2.64,-13.51 -8.02,-18.89 -5.1,-5.19 -11.45,-7.73 -18.89,-7.73z"/>
   <path class="fil2" d="M1949.41 144.44c7.34,0 13.6,2.54 18.99,7.73 5.18,5.38 7.73,11.65 7.73,18.99l0 258.3c0,18.21 6.36,33.67 19.18,46.49 12.82,12.82 28.29,19.19 46.49,19.19l0.29 0c7.44,0 13.7,2.54 18.89,7.73 5.39,5.38 8.03,11.65 8.03,18.99 0,7.44 -2.64,13.8 -8.03,19.18 -5.19,5.19 -11.45,7.73 -18.89,7.73l-0.29 0c-32.89,0 -60.98,-11.65 -84.28,-34.94 -23.39,-23.39 -35.04,-51.49 -35.04,-84.37l0 -258.3c0,-7.34 2.54,-13.61 7.73,-18.99 5.38,-5.19 11.74,-7.73 19.18,-7.73z"/>
   <path class="fil3" d="M303.38 301.4l99.64 172.88c14.69,25.62 5.75,58.61 -19.87,73.3l0 0c-25.62,14.7 -58.55,5.72 -73.31,-19.87l-85.16 -147.63 78.7 -78.69z"/>
   <path class="fil4" d="M-0 497.66l0 -443.96c0,-29.54 24.16,-53.7 53.71,-53.7l0 0c29.54,0 53.71,24.17 53.71,53.7l0 443.96c0,29.54 -24.17,53.71 -53.71,53.71 -29.54,0 -53.71,-24.16 -53.71,-53.71z"/>
   <path class="fil5" d="M408.57 143.63l0 0c20.88,20.89 20.88,55.07 0,75.95l-316.78 316.78c-20.88,20.88 -55.06,20.88 -75.95,0l0 0c-10.55,-10.55 -15.64,-24.48 -15.66,-38.38 -0.05,-35.82 -0.12,-63.3 -0.17,-99.12 36.19,48.34 86.51,-9.13 107.63,-30.25l224.98 -224.99c20.89,-20.88 55.07,-20.88 75.96,0l0 0z"/>
   <g>
    <path class="fil6" d="M708.76 217.77c85.71,49.49 115.08,159.09 65.59,244.8 -49.48,85.71 -159.09,115.08 -244.79,65.59 -85.71,-49.48 -115.08,-159.09 -65.59,-244.8 49.49,-85.71 159.09,-115.08 244.8,-65.59zm-50.78 87.95c37.14,21.45 49.87,68.94 28.42,106.08 -21.45,37.14 -68.94,49.87 -106.08,28.42 -37.14,-21.44 -49.87,-68.94 -28.42,-106.08 21.45,-37.14 68.94,-49.87 106.08,-28.42l0 0z"/>
    <path class="fil7" d="M684.6 206.13c-60.53,15.01 -138.33,68.47 -143.84,161.29 -0.5,94.44 -1.01,176.23 -1.5,266.76l0 41.31c0,1.72 -0.09,3.41 -0.26,5.08l-0.02 4.24 -0.59 -0.01c-4.41,23.52 -25.17,41.46 -49.92,41.46l0 0c-27.93,0 -50.78,-22.85 -50.78,-50.78l0 -299.21c-1.47,-125.89 129.26,-218.01 246.91,-170.15z"/>
   </g>
  </g>
 </g>
</svg>
